<svg width="25" height="25" viewBox="0 0 25 25" fill="none" xmlns="http://www.w3.org/2000/svg">
    <g clip-path="url(#clip0)">
        <path d="M12.0339 1.58187C12.1991 1.15649 12.8009 1.1565 12.9661 1.58186L15.4232 7.91003C15.6351 8.45588 16.1453 8.82851 16.7298 8.86431L23.4559 9.27624C23.9076 9.30391 24.0931 9.86962 23.7455 10.1594L18.524 14.5115C18.0795 14.882 17.8878 15.4753 18.0314 16.0359L19.7255 22.6503C19.8384 23.091 19.3519 23.4412 18.9698 23.1944L13.3139 19.5406C12.8185 19.2206 12.1815 19.2206 11.6861 19.5406L6.03019 23.1944C5.64809 23.4412 5.16164 23.091 5.2745 22.6503L6.96865 16.0359C7.11224 15.4753 6.92051 14.882 6.47595 14.5115L1.25453 10.1594C0.906886 9.86962 1.09237 9.30391 1.5441 9.27624L8.27025 8.8643C8.85471 8.82851 9.36491 8.45588 9.57685 7.91003L12.0339 1.58187Z" fill="#B9CADC" stroke="#395080"/>
    </g>
    <defs>
        <clipPath id="clip0">
            <rect width="25" height="25" fill="white"/>
        </clipPath>
    </defs>
</svg>
